<?xml version="1.0" encoding="utf-8"?>
<!-- Generator: Adobe Illustrator 15.0.0, SVG Export Plug-In . SVG Version: 6.00 Build 0)  -->
<!DOCTYPE svg PUBLIC "-//W3C//DTD SVG 1.1//EN" "http://www.w3.org/Graphics/SVG/1.1/DTD/svg11.dtd">
<svg version="1.1" id="Layer_1" xmlns="http://www.w3.org/2000/svg" xmlns:xlink="http://www.w3.org/1999/xlink" x="0px" y="0px"
	 width="238px" height="332px" viewBox="0 0 238 332" enable-background="new 0 0 238 332" xml:space="preserve">
<rect x="-5.5" y="-3.5" fill="#D2CBE0" stroke="#29332B" stroke-miterlimit="10" width="250" height="342"/>
<circle fill="#D6FFE0" cx="59.249" cy="267.333" r="38.158"/>
<circle fill="#CCFFD9" cx="59.249" cy="242.151" r="38.158"/>
<circle fill="#99BFA3" cx="59.249" cy="216.969" r="38.158"/>
<circle fill="#66806C" cx="59.249" cy="191.787" r="38.158"/>
<circle fill="#D6FFE0" cx="59.249" cy="65.878" r="38.158"/>
<circle fill="#CCFFD9" cx="59.249" cy="91.06" r="38.158"/>
<circle fill="#99BFA3" cx="59.249" cy="116.241" r="38.158"/>
<circle fill="#66806C" cx="59.249" cy="141.424" r="38.158"/>
<circle fill="#334036" cx="59.249" cy="166.605" r="38.158"/>
<circle fill="#D6FFE0" cx="179.248" cy="267.333" r="38.158"/>
<circle fill="#CCFFD9" cx="179.248" cy="242.151" r="38.158"/>
<circle fill="#99BFA3" cx="179.248" cy="216.969" r="38.158"/>
<circle fill="#66806C" cx="179.248" cy="191.787" r="38.158"/>
<circle fill="#D6FFE0" cx="179.249" cy="65.878" r="38.158"/>
<circle fill="#CCFFD9" cx="179.249" cy="91.06" r="38.158"/>
<circle fill="#99BFA3" cx="179.249" cy="116.241" r="38.158"/>
<circle fill="#66806C" cx="179.249" cy="141.424" r="38.158"/>
<circle fill="#334036" cx="179.249" cy="166.605" r="38.158"/>
<circle fill="#E0FFE8" cx="79.249" cy="267.333" r="38.158"/>
<circle fill="#D6FFE0" cx="79.249" cy="242.151" r="38.158"/>
<circle fill="#CCFFD9" cx="79.249" cy="216.969" r="38.158"/>
<circle fill="#99BFA3" cx="79.249" cy="191.787" r="38.158"/>
<circle fill="#E0FFE8" cx="79.249" cy="65.878" r="38.158"/>
<circle fill="#D6FFE0" cx="79.249" cy="91.06" r="38.158"/>
<circle fill="#CCFFD9" cx="79.249" cy="116.241" r="38.158"/>
<circle fill="#99BFA3" cx="79.249" cy="141.424" r="38.158"/>
<circle fill="#66806C" cx="79.249" cy="166.605" r="38.158"/>
<circle fill="#E0FFE8" cx="159.248" cy="267.333" r="38.158"/>
<circle fill="#CCFFD9" cx="159.248" cy="242.151" r="38.158"/>
<circle fill="#CCFFD9" cx="159.248" cy="216.969" r="38.158"/>
<circle fill="#99BFA3" cx="159.248" cy="191.787" r="38.158"/>
<circle fill="#E0FFE8" cx="159.249" cy="65.878" r="38.158"/>
<circle fill="#D6FFE0" cx="159.249" cy="91.06" r="38.158"/>
<circle fill="#CCFFD9" cx="159.249" cy="116.241" r="38.158"/>
<circle fill="#99BFA3" cx="159.249" cy="141.424" r="38.158"/>
<circle fill="#66806C" cx="159.249" cy="166.605" r="38.158"/>
<circle fill="#EBFFF0" cx="139.248" cy="267.333" r="38.158"/>
<circle fill="#E0FFE8" cx="139.248" cy="242.151" r="38.158"/>
<circle fill="#CCFFD9" cx="139.248" cy="216.969" r="38.158"/>
<circle fill="#CCFFD9" cx="139.248" cy="191.787" r="38.158"/>
<circle fill="#EBFFF0" cx="139.249" cy="65.878" r="38.158"/>
<circle fill="#E0FFE8" cx="139.249" cy="91.06" r="38.158"/>
<circle fill="#D6FFE0" cx="139.249" cy="116.241" r="38.158"/>
<circle fill="#CCFFD9" cx="139.249" cy="141.424" r="38.158"/>
<circle fill="#99BFA3" cx="139.249" cy="166.605" r="38.158"/>
<circle fill="#EBFFF0" cx="99.249" cy="267.333" r="38.158"/>
<circle fill="#E0FFE8" cx="99.249" cy="242.151" r="38.158"/>
<circle fill="#D6FFE0" cx="99.249" cy="216.969" r="38.158"/>
<circle fill="#CCFFD9" cx="99.249" cy="191.787" r="38.158"/>
<circle fill="#EBFFF0" cx="99.249" cy="65.878" r="38.158"/>
<circle fill="#E0FFE8" cx="99.249" cy="91.06" r="38.158"/>
<circle fill="#D6FFE0" cx="99.249" cy="116.241" r="38.158"/>
<circle fill="#CCFFD9" cx="99.249" cy="141.424" r="38.158"/>
<circle fill="#99BFA3" cx="99.249" cy="166.605" r="38.158"/>
<circle fill="#F5FFF7" cx="119.249" cy="267.333" r="38.158"/>
<circle fill="#EBFFF0" cx="119.249" cy="242.151" r="38.158"/>
<circle fill="#E0FFE8" cx="119.249" cy="216.969" r="38.158"/>
<circle fill="#D6FFE0" cx="119.249" cy="191.787" r="38.158"/>
<circle fill="#F5FFF7" cx="119.249" cy="65.878" r="38.158"/>
<circle fill="#EBFFF0" cx="119.249" cy="91.06" r="38.158"/>
<circle fill="#E0FFE8" cx="119.249" cy="116.241" r="38.158"/>
<circle fill="#D6FFE0" cx="119.249" cy="141.424" r="38.158"/>
<circle fill="#CCFFD9" cx="119.249" cy="166.605" r="38.158"/>
</svg>
